<?xml version="1.0" encoding="utf-8"?>
<svg xmlns="http://www.w3.org/2000/svg" viewBox="0 0 500 500" xmlns:bx="https://boxy-svg.com">
  <defs>
    <bx:export>
      <bx:file format="svg" href="#object-0"/>
      <bx:file format="svg" href="#Layer_1" path="Untitled 3.svg"/>
      <bx:file format="svg" href="#レイヤー_1" path="Untitled 2.svg"/>
    </bx:export>
  </defs>
  <g id="svg2" transform="matrix(0.623544, 0, 0, 0.647264, 65.387513, 134.562304)" style="">
    <g transform="matrix(2.624569, 0, 0, 2.364971, -149.245257, -611.498605)" style="" id="object-0">
      <rect x="217.858" y="318.636" width="16.619" height="162.158" style="fill: rgb(216, 216, 216); stroke: rgb(0, 0, 0);"/>
      <path d="M 196.15 332.829 C 193.682 332.829 190.653 330.997 189.422 328.782 L 158.891 273.619 C 157.66 271.385 157.66 267.74 158.891 265.513 L 189.422 210.356 C 190.653 208.128 193.682 206.315 196.15 206.315 L 257.206 206.315 C 259.673 206.315 262.703 208.14 263.934 210.356 L 294.465 265.513 C 295.695 267.74 295.695 271.385 294.465 273.619 L 263.934 328.77 C 262.703 330.997 259.673 332.81 257.206 332.81 L 196.15 332.81 L 196.15 332.829 Z" fill="#FF5959" style="stroke-width: 1;"/>
      <path d="M 188.653 276.985 C 188.238 276.682 187.957 276.168 187.957 275.555 C 187.957 274.578 188.713 273.823 189.656 273.823 C 190.144 273.823 190.472 273.971 190.699 274.163 C 192.392 275.555 194.191 276.347 196.411 276.347 C 198.625 276.347 200.023 275.252 200.023 273.662 L 200.023 273.6 C 200.023 272.072 199.207 271.255 195.428 270.339 C 191.087 269.25 188.64 267.901 188.64 263.984 L 188.64 263.923 C 188.64 260.278 191.549 257.741 195.608 257.741 C 198.177 257.741 200.243 258.446 202.089 259.715 C 202.504 259.956 202.872 260.47 202.872 261.206 C 202.872 262.19 202.116 262.939 201.18 262.939 C 200.825 262.939 200.531 262.846 200.243 262.666 C 198.672 261.608 197.147 261.064 195.548 261.064 C 193.455 261.064 192.224 262.19 192.224 263.582 L 192.224 263.65 C 192.224 265.284 193.161 266.026 197.087 266.985 C 201.394 268.081 203.614 269.702 203.614 273.216 L 203.614 273.278 C 203.614 277.257 200.611 279.633 196.317 279.633 C 193.549 279.664 190.913 278.754 188.653 276.985 Z M 212.416 261.546 L 207.46 261.546 C 206.517 261.546 205.794 260.761 205.794 259.814 C 205.794 258.867 206.517 258.081 207.46 258.081 L 221.003 258.081 C 221.906 258.081 222.628 258.867 222.628 259.814 C 222.628 260.761 221.906 261.546 221.003 261.546 L 216.014 261.546 L 216.014 277.659 C 216.014 278.686 215.198 279.522 214.215 279.522 C 213.232 279.522 212.416 278.705 212.416 277.659 L 212.416 261.546 Z M 241.85 268.786 L 241.85 268.718 C 241.85 264.578 238.96 261.144 234.914 261.144 C 230.861 261.144 228.032 264.517 228.032 268.656 L 228.032 268.718 C 228.032 272.864 230.928 276.267 234.974 276.267 C 239.021 276.267 241.85 272.926 241.85 268.786 Z M 224.28 268.786 L 224.28 268.718 C 224.28 262.734 228.708 257.71 234.974 257.71 C 241.234 257.71 245.608 262.666 245.608 268.656 L 245.608 268.718 C 245.608 274.708 241.174 279.732 234.914 279.732 C 228.647 279.732 224.28 274.77 224.28 268.786 Z M 257.7 269.151 C 260.409 269.151 262.101 267.567 262.101 265.352 L 262.101 265.284 C 262.101 262.796 260.376 261.478 257.7 261.478 L 253.534 261.478 L 253.534 269.139 L 257.7 269.151 Z M 249.942 259.975 C 249.942 258.91 250.731 258.094 251.748 258.094 L 257.981 258.094 C 262.763 258.094 265.733 260.921 265.733 265.203 L 265.733 265.271 C 265.733 270.036 262.054 272.542 257.58 272.542 L 253.534 272.542 L 253.534 277.678 C 253.534 278.705 252.745 279.54 251.748 279.54 C 250.731 279.54 249.942 278.717 249.942 277.678 L 249.942 259.975 Z" fill="#FFFFFF" style="stroke-width: 1;"/>
      <path d="M 198.545 320.373 L 254.791 320.373 L 282.921 269.553 L 254.791 218.752 L 198.545 218.752 L 170.435 269.572 L 198.545 320.373 Z M 256.102 325.063 L 197.254 325.063 C 196.458 325.063 195.715 324.611 195.314 323.888 L 165.893 270.741 C 165.492 270.017 165.492 269.12 165.893 268.402 L 195.314 215.25 C 195.715 214.532 196.458 214.081 197.254 214.081 L 256.102 214.081 C 256.898 214.081 257.64 214.532 258.042 215.25 L 287.462 268.402 C 287.864 269.12 287.864 270.017 287.462 270.741 L 258.042 323.888 C 257.64 324.611 256.898 325.063 256.102 325.063 Z" fill="#FFFFFF" style="stroke-width: 1;"/>
    </g>
    <g id="レイヤー_1" transform="matrix(1.096427, 0, 0, 1.004255, 39.211812, 27.625531)" style="">
      <path fill-rule="evenodd" clip-rule="evenodd" fill="#F6D2A2" stroke="#000000" stroke-width="3" stroke-linecap="round" d="M -35.332 276.853 C -34.568 292.604 -18.833 285.316 -11.706 280.392 C -4.941 275.717 -2.963 279.603 -2.369 270.377 C -1.98 264.313 -1.281 258.249 -1.625 252.161 C -11.855 251.234 -22.982 253.67 -31.369 259.763 C -35.689 262.902 -43.789 272.921 -35.332 276.853" style="stroke-width: 3;"/>
      <path fill-rule="evenodd" clip-rule="evenodd" fill="#C6B198" stroke="#000000" stroke-width="3" stroke-linecap="round" d="M -35.332 276.853 C -33.042 276.001 -30.615 275.396 -29.061 273.325" style="stroke-width: 3;"/>
      <path fill-rule="evenodd" clip-rule="evenodd" fill="#6AD7E5" stroke="#000000" stroke-width="3" stroke-linecap="round" d="M 1.031 89.213 C -59.266 72.257 -14.43 -4.451 33.99 27.1 L 1.031 89.213 Z" style="stroke-width: 3;"/>
      <path fill-rule="evenodd" clip-rule="evenodd" fill="#6AD7E5" stroke="#000000" stroke-width="3" stroke-linecap="round" d="M 268.929 21.344 C 316.656 -12.179 359.785 63.455 304.317 82.485 L 268.929 21.344 Z" style="stroke-width: 3;"/>
      <path fill-rule="evenodd" clip-rule="evenodd" fill="#F6D2A2" stroke="#000000" stroke-width="3" stroke-linecap="round" d="M 279.195 470.703 C 291.318 478.204 313.477 500.885 295.291 511.883 C 277.817 527.882 268.037 494.322 252.7 489.672 C 259.305 480.702 267.677 472.523 279.195 470.703 Z" style="stroke-width: 3;"/>
      <path fill-rule="evenodd" clip-rule="evenodd" fill="none" stroke="#000000" stroke-width="3" stroke-linecap="round" d="M 295.291 511.882 C 292.595 506.521 291.69 500.264 287.189 495.943" style="stroke-width: 3;"/>
      <path fill-rule="evenodd" clip-rule="evenodd" fill="#F6D2A2" stroke="#000000" stroke-width="3" stroke-linecap="round" d="M 62.613 496.335 C 48.384 498.537 40.375 511.374 28.513 517.893 C 17.335 524.558 13.059 515.759 12.052 513.973 C 10.3 513.174 10.447 514.717 7.743 511.994 C -2.619 495.64 18.54 483.686 29.558 475.562 C 44.904 472.46 54.521 485.764 62.613 496.335 Z" style="stroke-width: 3;"/>
      <path fill-rule="evenodd" clip-rule="evenodd" fill="none" stroke="#000000" stroke-width="3" stroke-linecap="round" d="M 12.053 513.972 C 12.595 507.739 17.537 503.565 19.891 498.295" style="stroke-width: 3;"/>
      <path fill-rule="evenodd" clip-rule="evenodd" d="M 3.547 68.027 C -4.408 63.819 -10.244 58.104 -5.378 48.903 C -0.873 40.385 7.496 41.31 15.452 45.518 L 3.547 68.027 Z" style="stroke-width: 1;"/>
      <path fill-rule="evenodd" clip-rule="evenodd" d="M 291.75 60.027 C 299.705 55.819 305.541 50.104 300.675 40.903 C 296.17 32.385 287.801 33.31 279.845 37.518 L 291.75 60.027 Z" style="stroke-width: 1;"/>
      <path fill-rule="evenodd" clip-rule="evenodd" fill="#F6D2A2" stroke="#000000" stroke-width="3" stroke-linecap="round" d="M 346.509 274.853 C 345.745 290.604 330.01 283.316 322.883 278.392 C 316.118 273.717 314.14 277.603 313.546 268.377 C 313.157 262.313 312.458 256.249 312.802 250.161 C 323.032 249.234 334.159 251.67 342.546 257.763 C 346.865 260.902 354.966 270.921 346.509 274.853" style="stroke-width: 3;"/>
      <path fill-rule="evenodd" clip-rule="evenodd" fill="#C6B198" stroke="#000000" stroke-width="3" stroke-linecap="round" d="M 346.509 274.853 C 344.219 274.001 341.792 273.396 340.238 271.325" style="stroke-width: 3;"/>
      <g transform="matrix(1, 0, 0, 1, -45.966427, -23.639797)">
        <path fill-rule="evenodd" clip-rule="evenodd" fill="#6AD7E5" stroke="#000000" stroke-width="3" stroke-linecap="round" d=" M195.512,13.124c60.365,0,116.953,8.633,146.452,66.629c26.478,65.006,17.062,135.104,21.1,203.806 c3.468,58.992,11.157,127.145-16.21,181.812c-28.79,57.514-100.73,71.982-160,69.863c-46.555-1.666-102.794-16.854-129.069-59.389 c-30.826-49.9-16.232-124.098-13.993-179.622c2.652-65.771-17.815-131.742,3.792-196.101 C69.999,33.359,130.451,18.271,195.512,13.124"/>
      </g>
      <path fill-rule="evenodd" clip-rule="evenodd" fill="#FFFFFF" stroke="#000000" stroke-width="2.9081" stroke-linecap="round" d="M 160.203 70.52 C 171.041 133.523 274.025 116.865 259.233 53.323 C 245.969 -3.657 156.601 12.115 160.203 70.52" style="stroke-width: 2.908;"/>
      <path fill-rule="evenodd" clip-rule="evenodd" fill="#FFFFFF" stroke="#000000" stroke-width="2.8214" stroke-linecap="round" d="M 37.137 80.71 C 51.184 135.56 139.001 121.517 135.691 66.497 C 131.725 0.602 23.707 13.317 37.137 80.71" style="stroke-width: 2.821;"/>
      <path fill-rule="evenodd" clip-rule="evenodd" fill="#FFFFFF" stroke="#000000" stroke-width="3" stroke-linecap="round" d="M 172.628 146.122 C 172.674 154.313 174.489 163.509 172.94 172.223 C 170.849 176.175 166.747 176.593 163.211 178.19 C 158.321 177.423 154.209 174.212 152.248 169.638 C 150.993 159.692 152.716 150.062 153.033 140.112 L 172.628 146.122 Z" style="stroke-width: 3;"/>
      <g transform="matrix(1, 0, 0, 1, -45.966427, -23.639797)">
        <ellipse fill-rule="evenodd" clip-rule="evenodd" cx="107.324" cy="95.404" rx="14.829" ry="16.062"/>
        <ellipse fill-rule="evenodd" clip-rule="evenodd" fill="#FFFFFF" cx="114.069" cy="99.029" rx="3.496" ry="4.082"/>
      </g>
      <g transform="matrix(1, 0, 0, 1, -45.966427, -23.639797)">
        <ellipse fill-rule="evenodd" clip-rule="evenodd" cx="231.571" cy="91.404" rx="14.582" ry="16.062"/>
        <ellipse fill-rule="evenodd" clip-rule="evenodd" fill="#FFFFFF" cx="238.204" cy="95.029" rx="3.438" ry="4.082"/>
      </g>
      <path fill-rule="evenodd" clip-rule="evenodd" fill="#FFFFFF" stroke="#000000" stroke-width="3" stroke-linecap="round" d="M 130.251 145.23 C 123.781 160.91 133.859 192.265 151.414 169.138 C 150.159 159.192 151.882 149.562 152.199 139.612 L 130.251 145.23 Z" style="stroke-width: 3;"/>
      <g transform="matrix(1, 0, 0, 1, -45.966427, -23.639797)">
        <path fill-rule="evenodd" clip-rule="evenodd" fill="#F6D2A2" stroke="#231F20" stroke-width="3" stroke-linecap="round" d=" M178.431,138.673c-12.059,1.028-21.916,15.366-15.646,26.709c8.303,15.024,26.836-1.329,38.379,0.203 c13.285,0.272,24.17,14.047,34.84,2.49c11.867-12.854-5.109-25.373-18.377-30.97L178.431,138.673z"/>
        <path fill-rule="evenodd" clip-rule="evenodd" d="M176.913,138.045c-0.893-20.891,38.938-23.503,43.642-6.016 C225.247,149.475,178.874,153.527,176.913,138.045C175.348,125.682,176.913,138.045,176.913,138.045z"/>
      </g>
    </g>
    <g id="Layer_1" transform="matrix(0.404283, 0, 0, 0.388109, 87.897928, -46.594456)" style="">
      <path style="fill: rgb(70, 70, 85); stroke-width: 1;" d="M 70.572 221.876 L 70.572 230.704 C 70.572 264.831 199.553 310.152 282.434 310.152 C 365.315 310.152 494.296 264.831 494.296 230.704 L 494.296 221.876 L 70.572 221.876 Z"/>
      <polygon style="fill: rgb(85, 110, 160); stroke-width: 1;" points="485.468 54.152 282.434 10.014 79.4 54.152 26.434 115.945 70.572 195.393 282.434 195.393 494.296 195.393 538.434 115.945"/>
      <polygon style="fill: rgb(75, 95, 145); stroke-width: 1;" points="79.4 54.152 26.434 115.945 70.572 195.393 282.434 195.393 282.434 10.014"/>
      <rect x="70.572" y="195.393" style="fill: rgb(112, 116, 135); stroke-width: 1;" width="423.724" height="35.31"/>
      <path style="fill: rgb(91, 93, 110); stroke-width: 1;" d="M 494.296 204.221 L 70.572 204.221 C 65.697 204.221 61.744 200.268 61.744 195.393 C 61.744 190.518 65.697 186.565 70.572 186.565 L 494.296 186.565 C 499.171 186.565 503.124 190.518 503.124 195.393 C 503.124 200.268 499.171 204.221 494.296 204.221 Z"/>
      <path style="fill: rgb(255, 215, 130); stroke-width: 1;" d="M 282.434 160.083 C 258.058 160.083 238.296 140.321 238.296 115.945 L 238.296 80.635 C 238.296 75.76 242.249 71.807 247.124 71.807 L 317.745 71.807 C 322.62 71.807 326.573 75.76 326.573 80.635 L 326.573 115.945 C 326.572 140.321 306.81 160.083 282.434 160.083 Z"/>
      <path style="fill: rgb(255, 195, 110); stroke-width: 1;" d="M 247.124 71.807 C 242.249 71.807 238.296 75.76 238.296 80.635 L 238.296 115.945 C 238.296 140.321 258.058 160.083 282.434 160.083 L 282.434 71.807 L 247.124 71.807 Z"/>
    </g>
  </g>
</svg>